<svg width="50" height="50" viewBox="0 0 50 50" fill="none" xmlns="http://www.w3.org/2000/svg">
<rect width="50" height="50" fill="white"/>
<path d="M31.7614 7.09091H40.1818V29.608C40.1818 32.2102 39.5625 34.4773 38.3239 36.4091C37.0852 38.3295 35.358 39.8182 33.142 40.875C30.9261 41.9205 28.3523 42.4432 25.4205 42.4432C22.4545 42.4432 19.8636 41.9205 17.6477 40.875C15.4318 39.8182 13.7102 38.3295 12.483 36.4091C11.2557 34.4773 10.642 32.2102 10.642 29.608V7.09091H19.0795V28.875C19.0795 30.0795 19.3409 31.1534 19.8636 32.0966C20.3977 33.0398 21.142 33.7784 22.0966 34.3125C23.0511 34.8466 24.1591 35.1136 25.4205 35.1136C26.6818 35.1136 27.7841 34.8466 28.7273 34.3125C29.6818 33.7784 30.4261 33.0398 30.9602 32.0966C31.4943 31.1534 31.7614 30.0795 31.7614 28.875V7.09091Z" fill="black"/>
</svg>
